<?xml version="1.0" encoding="UTF-8"?>
<svg version="1.1" xmlns="http://www.w3.org/2000/svg" width="899" height="782">
<path d="M0 0 C1.8959481 -0.00115472 3.79189597 -0.00274459 5.68784338 -0.00472724 C10.85551676 -0.008873 16.02317148 -0.00685145 21.19084489 -0.00374103 C26.78156873 -0.00146739 32.37228948 -0.00497646 37.9630127 -0.00772095 C48.90339438 -0.01215814 59.84376918 -0.01121086 70.78415113 -0.00830831 C79.68937934 -0.00604426 88.59460564 -0.0057461 97.49983406 -0.00683212 C98.77035526 -0.00698536 100.04087646 -0.00713859 101.3498983 -0.00729647 C103.93165862 -0.00761622 106.51341894 -0.00794043 109.09517927 -0.00826906 C132.5990056 -0.0110372 156.10282733 -0.00817096 179.60665284 -0.00292646 C200.99123431 0.00180898 222.37580982 0.00140234 243.76039124 -0.00338745 C267.84401591 -0.00876388 291.92763651 -0.01083409 316.011262 -0.00777519 C318.58839548 -0.00745668 321.16552895 -0.00714231 323.74266243 -0.00683212 C325.01031807 -0.00667785 326.27797371 -0.00652357 327.58404316 -0.00636462 C336.45540233 -0.00550644 345.32675937 -0.00694738 354.19811821 -0.00931168 C365.04401198 -0.01213881 375.88989853 -0.01131112 386.7357915 -0.00603093 C392.25479612 -0.00343137 397.77378878 -0.00232385 403.29279327 -0.00568008 C505.76904729 -0.06270954 505.76904729 -0.06270954 546.75868225 15.12698364 C547.54678284 15.41267212 548.33488342 15.6983606 549.14686584 15.9927063 C573.32866629 24.85091184 595.27118433 37.25811825 614.75868225 54.12698364 C615.56305725 54.82049927 616.36743225 55.51401489 617.19618225 56.22854614 C619.75828405 58.48680895 622.26413091 60.79432059 624.75868225 63.12698364 C625.48909729 63.79842407 625.48909729 63.79842407 626.23426819 64.48342896 C640.63788697 77.81472786 651.85561134 93.68819152 660.75868225 111.12698364 C661.13331604 111.84257446 661.50794983 112.55816528 661.89393616 113.29544067 C673.34819382 135.32581223 679.82538584 159.29564267 680.75868225 184.12698364 C680.79952942 185.12423462 680.79952942 185.12423462 680.84120178 186.14163208 C682.30783592 227.04135389 669.54591837 268.55803292 642.2313385 299.49807739 C640.58354998 301.24999157 638.90330979 302.97194061 637.192276 304.66213989 C634.73588291 307.05638654 634.73588291 307.05638654 632.7625885 309.67385864 C630.61208597 312.30644264 628.35452855 314.26283489 625.69618225 316.37698364 C621.37648024 319.82748591 621.37648024 319.82748591 617.1219635 323.35745239 C588.82761465 347.25327766 544.7944564 370.66814143 506.75868225 369.12698364 C512.03105528 375.77070622 517.50845403 382.0936752 523.30555725 388.27688599 C526.51921407 391.72521354 529.5571263 395.26021648 532.50868225 398.93948364 C535.74764661 402.97357283 539.1579575 406.63641204 542.864151 410.24026489 C545.353694 412.71954174 547.63384578 415.34952101 549.926651 418.00979614 C555.28554544 424.20280422 560.84078971 430.22396957 566.38368225 436.25198364 C569.98641197 440.17089396 573.53864473 444.12646536 577.0282135 448.14651489 C582.2245591 454.09357407 587.56390948 459.91557133 592.88368225 465.75198364 C595.68625606 468.8300793 598.468361 471.92000234 601.19618225 475.06448364 C604.58273066 478.9610064 608.0720622 482.76051192 611.56654358 486.55984497 C616.73471027 492.18087857 621.83264074 497.86413159 626.93055725 503.54885864 C631.05512823 508.14146604 635.20499354 512.70869224 639.38368225 517.25198364 C642.98770953 521.172197 646.54073007 525.12953161 650.03211975 529.15042114 C655.38176563 535.27467638 660.88026463 541.26620599 666.38368225 547.25198364 C671.56101628 552.88954477 676.62602714 558.60509772 681.57118225 564.44729614 C682.61249857 565.67415609 683.6541732 566.90071199 684.69618225 568.12698364 C685.21204895 568.73574341 685.72791565 569.34450317 686.25941467 569.97171021 C689.76090941 574.06685713 693.41767983 577.87348147 697.43055725 581.47854614 C698.75868225 583.12698364 698.75868225 583.12698364 698.75868225 587.12698364 C695.78644176 588.61310389 692.76071191 588.26415671 689.50209045 588.25396729 C688.74537395 588.25552728 687.98865744 588.25708727 687.20901012 588.25869453 C684.65914176 588.26270062 682.10933237 588.25951617 679.5594635 588.25637817 C677.73618027 588.25773257 675.91289731 588.25951272 674.08961487 588.26168823 C669.12173421 588.26626317 664.15387423 588.2644714 659.18599319 588.26130915 C653.97869561 588.25877973 648.77139982 588.26112528 643.56410217 588.26269531 C634.80083397 588.26451789 626.03757418 588.2621111 617.27430725 588.25735474 C607.18059514 588.25193907 597.08690332 588.25365467 586.99319172 588.25918114 C578.31183608 588.26374232 569.63048651 588.26434738 560.94913006 588.26174247 C555.77192542 588.26019265 550.59473025 588.25994956 545.41752625 588.26327896 C540.53217642 588.26620047 535.64685223 588.26410463 530.76150513 588.2583847 C528.9823511 588.25707861 527.20319486 588.25741388 525.42404175 588.25964737 C516.57691066 588.26971598 507.75679066 588.15626328 498.92054749 587.68945312 C498.18519933 587.6517975 497.44985117 587.61414187 496.69221973 587.57534516 C490.90043701 587.23379418 485.53884317 586.28247776 480.00868225 584.56448364 C479.13091125 584.299823 478.25314026 584.03516235 477.34877014 583.76248169 C463.79582578 579.4567859 453.75981509 572.09715323 443.75868225 562.12698364 C442.98782288 561.39995239 442.2169635 560.67292114 441.42274475 559.92385864 C439.75868225 558.12698364 439.75868225 558.12698364 439.75868225 556.12698364 C439.09868225 556.12698364 438.43868225 556.12698364 437.75868225 556.12698364 C436.4188385 554.79885864 436.4188385 554.79885864 434.82118225 552.87698364 C431.71300251 549.217248 428.51630895 545.65358361 425.25868225 542.12698364 C422.27815753 538.89234049 419.31551419 535.64872 416.44618225 532.31448364 C412.38861529 527.62814118 408.11646375 523.1413999 403.87709045 518.62039185 C400.37434855 514.87830603 396.93760875 511.09893373 393.59461975 507.21292114 C391.03375149 504.30333891 388.39418221 501.46889757 385.75868225 498.62698364 C378.60108151 490.89014867 378.60108151 490.89014867 375.50868225 487.43948364 C374.967276 486.83749146 374.42586975 486.23549927 373.86805725 485.61526489 C372.75868225 484.12698364 372.75868225 484.12698364 372.75868225 482.12698364 C371.76868225 481.79698364 370.77868225 481.46698364 369.75868225 481.12698364 C368.32118225 479.70120239 368.32118225 479.70120239 366.75868225 477.81448364 C363.76616037 474.28870314 360.7034011 470.84124226 357.57118225 467.43948364 C357.10808655 466.93537964 356.64499084 466.43127563 356.16786194 465.91189575 C353.66079576 463.18539737 351.14697796 460.46521845 348.629776 457.74807739 C339.57633438 447.97458773 339.57633438 447.97458773 335.50868225 443.43948364 C334.967276 442.83749146 334.42586975 442.23549927 333.86805725 441.61526489 C332.75868225 440.12698364 332.75868225 440.12698364 332.75868225 438.12698364 C332.09868225 438.12698364 331.43868225 438.12698364 330.75868225 438.12698364 C329.45399475 436.83401489 329.45399475 436.83401489 327.88368225 434.93948364 C324.6580292 431.14380874 321.33479295 427.4637567 317.94618225 423.81448364 C304.39402485 409.18332606 304.39402485 409.18332606 298.32118225 402.18948364 C295.35984443 398.78009471 292.3170482 395.44914396 289.25868225 392.12698364 C272.75868225 374.19220103 272.75868225 374.19220103 272.75868225 371.12698364 C244.54368225 371.62198364 244.54368225 371.62198364 215.75868225 372.12698364 C214.76868225 375.09698364 213.77868225 378.06698364 212.75868225 381.12698364 C211.80189902 383.63245699 210.83139889 386.12252115 209.8250885 388.60745239 C209.41509865 389.62924339 209.41509865 389.62924339 208.99682617 390.67167664 C208.10735574 392.88692337 207.21425763 395.10068809 206.32118225 397.31448364 C205.68549049 398.89607883 205.05007851 400.4777865 204.41493225 402.05960083 C203.12980106 405.259452 201.84345201 408.45880895 200.55604553 411.65774536 C198.56579594 416.60447292 196.58464339 421.55481322 194.60585022 426.50613403 C193.44715342 429.40539586 192.28703649 432.30408533 191.12660217 435.20265198 C188.38195097 442.05954971 185.64540347 448.91964657 182.91246033 455.78121948 C180.99218172 460.60108674 179.06961916 465.42004162 177.14686584 470.23892212 C176.1984604 472.61735762 175.2509925 474.99616724 174.30458069 477.37539673 C169.2607116 490.05402156 164.15126388 502.70153373 158.86024475 515.27932739 C158.4161174 516.34032654 157.97199005 517.40132568 157.5144043 518.49447632 C145.73677939 546.30528738 127.50070119 569.15548138 99.426651 581.55667114 C86.74334848 586.16932858 74.2325992 587.7619585 60.82118225 587.87698364 C59.11877706 587.90470242 57.41638482 587.93322531 55.71400452 587.96243286 C49.06246905 588.06156805 42.41082715 588.09644694 35.75868225 588.12698364 C34.99446457 588.13066452 34.23024689 588.1343454 33.44287109 588.13813782 C20.64259066 588.19905324 7.84234166 588.23366726 -4.95807266 588.24858093 C-6.85987513 588.25085495 -8.76167725 588.2534505 -10.66347885 588.25636292 C-16.14899886 588.26461631 -21.63446743 588.26741708 -27.1199913 588.26155472 C-28.82286421 588.26038619 -30.5257391 588.26088119 -32.22861099 588.26307297 C-34.5747589 588.26561259 -36.92081164 588.26187628 -39.26695251 588.25637817 C-39.9642192 588.25840618 -40.66148588 588.26043419 -41.37988186 588.26252365 C-46.12703537 588.24126602 -46.12703537 588.24126602 -47.24131775 587.12698364 C-46.88590099 580.78025588 -44.49619131 575.72076505 -41.86631775 570.00198364 C-36.24294419 557.42998938 -31.40205938 544.60873681 -26.58506775 531.71096802 C-24.50032345 526.15063983 -22.37456197 520.60635463 -20.24131775 515.06448364 C-19.82946228 513.9937561 -19.41760681 512.92302856 -18.99327087 511.81985474 C-16.11182939 504.3454135 -13.18267174 496.89050922 -10.24131775 489.43948364 C-4.82779967 475.72333213 0.42583732 461.94724263 5.68473816 448.17123413 C10.77186553 434.85165941 15.92764 421.56329146 21.19618225 408.31448364 C27.0724144 393.53610898 32.75332022 378.68814854 38.38368225 363.81448364 C77.38768066 260.83379944 77.38768066 260.83379944 112.63490295 244.14163208 C127.3255003 237.60290767 142.42869353 234.95752026 158.45840454 235 C159.38095895 234.99844001 160.30351336 234.99688002 161.25402397 234.99527276 C164.31622169 234.99131402 167.37836901 234.99443228 170.44056702 234.99758911 C172.6472883 234.99623288 174.85400935 234.9944517 177.06072998 234.99227905 C183.03109459 234.98773355 189.00144186 234.98948177 194.97180676 234.99265814 C201.2200152 234.99519377 207.46822217 234.99284111 213.71643066 234.99127197 C224.8687338 234.98933875 236.02103012 234.99243887 247.17333191 234.99753131 C257.29203656 235.00200847 267.41072975 235.00121411 277.5294342 234.99661255 C289.2889293 234.99126732 301.04841881 234.98926492 312.80791515 234.99222481 C319.0301856 234.9937869 325.25244815 234.99398294 331.47471809 234.99068832 C337.3146818 234.98781171 343.1546237 234.9897814 348.99458504 234.99558258 C351.14371199 234.99691076 353.29284077 234.99651509 355.44196701 234.99431992 C358.36194081 234.991611 361.28184355 234.99498618 364.20181274 235 C365.06365112 234.99776928 365.9254895 234.99553856 366.8134442 234.99324024 C372.64453157 235.01283296 372.64453157 235.01283296 373.75868225 236.12698364 C373.86675785 238.19163859 373.90497712 240.25997299 373.91639709 242.3274231 C373.92147781 242.97463318 373.92655853 243.62184326 373.93179321 244.28866577 C373.9425179 245.6986231 373.9511298 247.10859768 373.95791245 248.51857948 C373.96967304 250.75037743 373.98911915 252.98197935 374.0110321 255.21369934 C374.07273708 261.56062289 374.12667398 267.90752859 374.16004944 274.25466919 C374.18099725 278.13337078 374.21630483 282.01171904 374.26080704 285.89021873 C374.27497102 287.36893744 374.28369039 288.84771871 374.28686142 290.32650185 C374.29177129 292.39749705 374.31493007 294.46755574 374.34217834 296.5383606 C374.3502652 297.71670975 374.35835205 298.8950589 374.36668396 300.1091156 C374.79477593 303.40485719 375.44028289 304.7866633 377.75868225 307.12698364 C383.49234493 309.10921921 387.57711754 306.64469265 392.75868225 304.12698364 C401.96161212 299.38927422 410.6998869 293.96122279 419.34217834 288.27835083 C424.13084486 285.14098612 428.99034102 282.17943297 433.94618225 279.31448364 C440.46862314 275.53518898 446.85038957 271.57059971 453.19618225 267.50198364 C469.37908635 257.12836378 485.80305104 247.14488273 502.21156311 237.13357544 C510.51211851 232.06464236 518.77572169 226.9361102 527.04139709 221.81057739 C529.81689115 220.09091818 532.59416772 218.37417204 535.3719635 216.65823364 C539.76196514 213.94628584 544.14868182 211.22911211 548.53260803 208.50735474 C550.47946547 207.30012377 552.42929966 206.0978831 554.379776 204.89651489 C555.35044006 204.29194458 556.32110413 203.68737427 557.32118225 203.06448364 C558.10622131 202.57850708 558.89126038 202.09253052 559.7000885 201.59182739 C562.01157367 199.94703244 563.89903205 198.27178021 565.75868225 196.12698364 C566.47090744 191.85363253 566.26483534 189.88260527 563.8407135 186.26370239 C560.24782038 182.17429273 555.61778145 179.87291892 550.88368225 177.31448364 C548.97802756 176.2558591 547.07308209 175.19595687 545.1688385 174.13479614 C544.23958557 173.62078247 543.31033264 173.1067688 542.35292053 172.57717896 C538.96564613 170.68367153 535.636882 168.70496412 532.32118225 166.68948364 C526.40546108 163.11041534 520.46362926 159.57792356 514.50868225 156.06448364 C504.47292831 150.14125652 494.44545399 144.20418485 484.42127991 138.26138306 C483.85070862 137.923125 483.28013733 137.58486694 482.692276 137.23635864 C482.12009338 136.89713379 481.54791077 136.55790894 480.95838928 136.20840454 C476.9464519 133.83019715 472.93293932 131.45466335 468.9188385 129.08010864 C456.91601356 121.97757495 444.93695571 114.83829479 432.98768616 107.64602661 C424.69271663 102.66376568 416.34823239 97.76979555 407.96669006 92.93460083 C403.19975314 90.17664436 398.51974332 87.3557466 393.93104553 84.31130981 C388.27515755 80.58960858 384.53412439 78.81560775 377.75868225 80.12698364 C375.42536749 82.38002077 374.80768871 83.75681576 374.38014221 86.98626709 C374.37706055 88.64267715 374.37706055 88.64267715 374.37391663 90.33255005 C374.35875 92.21437485 374.35875 92.21437485 374.34327698 94.13421631 C374.34483292 94.80144337 374.34638885 95.46867043 374.34799194 96.15611649 C374.35247651 98.24920403 374.3384555 100.34144908 374.31959534 102.43444824 C374.27660871 107.62905706 374.26554314 112.82364655 374.25337219 118.0184021 C374.24186122 122.41428946 374.21836164 126.80979076 374.17868042 131.20551682 C374.16507282 133.26972216 374.16928643 135.33341117 374.17408752 137.39764404 C374.1589209 139.27001236 374.1589209 139.27001236 374.14344788 141.1802063 C374.14036621 142.83422958 374.14036621 142.83422958 374.13722229 144.52166748 C374.01230408 145.38142181 373.88738586 146.24117615 373.75868225 147.12698364 C370.58852639 149.24042088 369.85582684 149.37558239 366.23646069 149.36584187 C364.83795133 149.36936506 364.83795133 149.36936506 363.41118926 149.37295943 C362.38513731 149.36528916 361.35908535 149.35761889 360.30194092 149.34971619 C359.21330256 149.34945818 358.1246642 149.34920018 357.0030368 149.34893435 C353.33645775 149.34552862 349.67009067 149.3276533 346.0035553 149.30984497 C343.38234108 149.30433255 340.76112497 149.29966295 338.13990784 149.29577637 C331.74740609 149.28452105 325.35498836 149.26221484 318.96253308 149.2357857 C313.7667246 149.2144269 308.57091572 149.19662797 303.37508583 149.18137169 C302.26676186 149.17810143 302.26676186 149.17810143 301.13604752 149.17476511 C299.63508751 149.17033956 298.1341275 149.1659167 296.63316748 149.16149648 C282.54789219 149.11948375 268.46269025 149.06437111 254.37747768 149.00530627 C241.49072203 148.95167333 228.6039801 148.91440984 215.71714856 148.88490764 C202.48904983 148.8544769 189.26102781 148.8130256 176.03300124 148.75962275 C168.60489408 148.72982888 161.1768337 148.70440628 153.74867821 148.69050026 C146.76289386 148.67728674 139.77731954 148.64854662 132.79163361 148.60929489 C130.2253666 148.59728714 127.65907001 148.59037615 125.09277534 148.58889198 C121.59374856 148.58606577 118.09529642 148.56495701 114.59637451 148.53916931 C113.06733483 148.54439432 113.06733483 148.54439432 111.50740546 148.54972488 C103.47999193 148.45845073 98.75604092 146.52253345 93.0438385 140.74026489 C92.19241272 139.88368286 91.34098694 139.02710083 90.46376038 138.14456177 C89.59170959 137.25188599 88.71965881 136.35921021 87.82118225 135.43948364 C86.95299866 134.5661438 86.08481506 133.69280396 85.19032288 132.79299927 C80.77478907 128.3240652 76.5269387 123.77210791 72.43177795 119.009552 C68.95976074 115.10283601 65.14957176 111.51924158 61.39344788 107.88870239 C60.79338928 107.29960083 60.19333069 106.71049927 59.5750885 106.10354614 C59.03311829 105.57841431 58.49114807 105.05328247 57.93275452 104.51223755 C56.75868225 103.12698364 56.75868225 103.12698364 56.75868225 101.12698364 C56.09868225 101.12698364 55.43868225 101.12698364 54.75868225 101.12698364 C53.45399475 99.79885864 53.45399475 99.79885864 51.88368225 97.87698364 C48.76749761 94.21240212 45.48442673 90.76329159 42.07118225 87.37698364 C41.56127747 86.87038208 41.05137268 86.36378052 40.52601624 85.84182739 C38.93885706 84.26822525 37.34922161 82.69716875 35.75868225 81.12698364 C29.83727727 75.28135532 23.95481626 69.47394802 18.55116272 63.13772583 C13.82740377 57.83877749 8.60181411 52.98002232 3.52626038 48.02151489 C2.65549866 47.16171021 1.78473694 46.30190552 0.8875885 45.41604614 C0.0942511 44.63954712 -0.6990863 43.8630481 -1.51646423 43.0630188 C-3.24131775 41.12698364 -3.24131775 41.12698364 -3.24131775 39.12698364 C-3.90131775 39.12698364 -4.56131775 39.12698364 -5.24131775 39.12698364 C-6.55259705 37.78787231 -6.55259705 37.78787231 -8.1280365 35.85745239 C-11.21635804 32.22333265 -14.48083883 28.82546926 -17.885849 25.49026489 C-18.38543121 24.99871918 -18.88501343 24.50717346 -19.3997345 24.00073242 C-21.47736522 21.95887378 -23.55829828 19.92058744 -25.64830017 17.89138794 C-27.19262312 16.3894535 -28.72728189 14.87816953 -30.260849 13.36526489 C-31.16939636 12.47879272 -32.07794373 11.59232056 -33.01402283 10.6789856 C-35.18537587 8.19108102 -36.25149234 6.24944247 -37.24131775 3.12698364 C-30.88747307 -3.22686104 -8.88132067 -0.01191405 0 0 Z " fill="#3b82f6" transform="translate(134.24131774902344,105.87301635742188)"/>
</svg>
